<svg width="33" height="33" viewBox="0 0 33 33" fill="none" xmlns="http://www.w3.org/2000/svg">
<path d="M26.8917 26.5301H6.82147C6.28918 26.5301 5.77868 26.3187 5.4023 25.9423C5.02591 25.5659 4.81445 25.0554 4.81445 24.5231V10.474C4.81445 9.94167 5.02591 9.43118 5.4023 9.05479C5.77868 8.6784 6.28918 8.46695 6.82147 8.46695H10.8355L12.8425 5.45642H20.8706L22.8776 8.46695H26.8917C27.424 8.46695 27.9344 8.6784 28.3108 9.05479C28.6872 9.43118 28.8987 9.94167 28.8987 10.474V24.5231C28.8987 25.0554 28.6872 25.5659 28.3108 25.9423C27.9344 26.3187 27.424 26.5301 26.8917 26.5301Z" stroke="white" stroke-width="2.00702" stroke-linecap="round" stroke-linejoin="round"/>
<path d="M16.8576 21.5127C19.3516 21.5127 21.3734 19.4909 21.3734 16.9969C21.3734 14.5029 19.3516 12.4811 16.8576 12.4811C14.3636 12.4811 12.3418 14.5029 12.3418 16.9969C12.3418 19.4909 14.3636 21.5127 16.8576 21.5127Z" stroke="white" stroke-width="2.00702" stroke-linecap="round" stroke-linejoin="round"/>
</svg>
