<svg width="27" height="30" viewBox="0 0 27 30" fill="none" xmlns="http://www.w3.org/2000/svg">
<path d="M25.3074 21.4941V9.12584C25.3064 8.94718 25.2584 8.77194 25.1681 8.61778C25.0778 8.46362 24.9484 8.33599 24.7931 8.24777L13.7545 2.03855C13.6057 1.95268 13.437 1.90747 13.2653 1.90747C13.0935 1.90747 12.9248 1.95268 12.776 2.03855L1.73744 8.24777C1.58209 8.33599 1.45274 8.46362 1.36245 8.61778C1.27215 8.77194 1.2241 8.94718 1.22314 9.12584V21.4941C1.2241 21.6728 1.27215 21.848 1.36245 22.0022C1.45274 22.1563 1.58209 22.2839 1.73744 22.3722L12.776 28.5814C12.9248 28.6673 13.0935 28.7125 13.2653 28.7125C13.437 28.7125 13.6057 28.6673 13.7545 28.5814L24.7931 22.3722C24.9484 22.2839 25.0778 22.1563 25.1681 22.0022C25.2584 21.848 25.3064 21.6728 25.3074 21.4941V21.4941Z" stroke="white" stroke-width="2.00702" stroke-linecap="round" stroke-linejoin="round"/>
<path d="M25.1686 8.61133L13.3774 15.3098L1.36035 8.61133" stroke="white" stroke-width="2.00702" stroke-linecap="round" stroke-linejoin="round"/>
<path d="M13.3785 15.3097L13.2656 28.7065" stroke="white" stroke-width="2.00702" stroke-linecap="round" stroke-linejoin="round"/>
</svg>
