<svg width="84" height="81" viewBox="0 0 84 81" fill="none" xmlns="http://www.w3.org/2000/svg">
<path d="M41.595 61.7005L47.9038 59.9244C47.9038 59.9244 49.4038 60.8544 56.149 62.861C62.8959 64.8676 64.7693 58.9944 64.7693 58.9944C64.7693 58.9944 50.3314 51.3994 47.0907 51.0965C45.0929 50.9105 43.1365 51.2907 40.3007 51.7056C36.929 52.1994 33.4726 52.7689 33.4726 52.7689L10.0195 41.146" stroke="black" stroke-width="2.64" stroke-miterlimit="10" stroke-linecap="round"/>
<path d="M2.73828 60.9678C2.73828 60.9678 16.4195 66.4311 20.2625 68.3834C22.7001 69.6229 30.932 73.9899 36.6202 77.017C40.2459 78.9462 44.5386 79.2145 48.3799 77.7512C48.3799 77.7512 64.6862 70.7603 66.9363 68.5299C69.1863 66.2994 81.3658 47.4288 81.3658 47.4288C79.9604 46.2173 76.2319 43.2791 72.427 48.6321C67.9286 54.9613 63.611 60.9563 63.611 60.9563" stroke="black" stroke-width="2.64" stroke-miterlimit="10"/>
<path d="M73.2326 47.4288C71.8271 46.2173 68.0986 43.2791 64.2938 48.6321C59.7953 54.9613 58.9922 56.0609 58.9922 56.0609" stroke="black" stroke-width="2.64" stroke-miterlimit="10"/>
<path d="M65.1031 47.4288C63.6977 46.2173 59.9691 43.2791 56.1643 48.6321L52.8672 53.2428" stroke="black" stroke-width="2.64" stroke-miterlimit="10"/>
<path d="M9.13769 52.0625C11.1613 46.5947 11.5764 41.716 10.0649 41.1655C8.55337 40.615 5.68761 44.6012 3.66402 50.069C1.64044 55.5367 1.22532 60.4155 2.73683 60.966C4.24834 61.5165 7.11411 57.5303 9.13769 52.0625Z" stroke="black" stroke-width="2.64" stroke-linecap="round" stroke-linejoin="round"/>
<path d="M59.8595 11.1904L41.5969 20.0644L23.3359 11.1904L41.5969 2.31641L59.8595 11.1904Z" stroke="black" stroke-width="2.64" stroke-linecap="round" stroke-linejoin="round"/>
<path d="M23.3359 11.1904V31.8717L41.5969 40.7457L59.8595 31.8717V11.1904" stroke="black" stroke-width="2.64" stroke-linecap="round" stroke-linejoin="round"/>
<path d="M41.5957 40.7457V20.0645" stroke="black" stroke-width="2.64" stroke-linecap="round" stroke-linejoin="round"/>
</svg>
