<svg width="79" height="75" viewBox="0 0 79 75" fill="none" xmlns="http://www.w3.org/2000/svg">
<path d="M1.5 37.7032L5.87705 33.3262L10.2558 37.7032" stroke="black" stroke-width="2.64" stroke-linecap="round" stroke-linejoin="round"/>
<path d="M19.8008 19.7734H25.9928V25.9654" stroke="black" stroke-width="2.64" stroke-linecap="round" stroke-linejoin="round"/>
<path d="M41.1094 21.4409L45.5443 25.7601L41.2251 30.195" stroke="black" stroke-width="2.64" stroke-linecap="round" stroke-linejoin="round"/>
<path d="M7.59424 26.3043C12.4308 11.5549 26.6033 1.18585 42.8784 1.85696C62.5157 2.66691 77.7792 19.2412 76.9692 38.8784C76.1593 58.5156 59.585 73.7791 39.9477 72.9692C20.3105 72.1592 5.04702 55.5849 5.85697 35.9477" stroke="black" stroke-width="2.64" stroke-linecap="round" stroke-linejoin="round"/>
<path d="M49.7169 29.1108C54.3039 33.6977 54.3039 41.1328 49.7169 45.7181C45.1299 50.3034 37.6949 50.3051 33.1095 45.7181C28.5242 41.1311 28.5226 33.6961 33.1095 29.1108C35.7411 26.4792 39.3098 25.3585 42.7414 25.7453" stroke="black" stroke-width="2.64" stroke-linecap="round" stroke-linejoin="round"/>
<path d="M33.5182 15.2869C42.1732 12.2025 52.2116 14.3844 58.7838 21.6046C67.5148 31.1967 66.8172 46.0519 57.2234 54.7845C47.6313 63.5155 32.7761 62.818 24.0434 53.2241C15.3125 43.632 16.01 28.7768 25.6038 20.0442" stroke="black" stroke-width="2.64" stroke-linecap="round" stroke-linejoin="round"/>
</svg>
