<svg width="25" height="39" viewBox="0 0 25 39" fill="none" xmlns="http://www.w3.org/2000/svg">
<path d="M23.4081 10.3754C22.86 10.3754 22.3753 10.6569 22.0891 11.0826H18.2759C19.9647 10.1434 21.3146 8.82702 21.578 6.70557C22.1677 6.55682 22.7132 6.26331 23.1554 5.82187C23.8 5.17728 24.1545 4.32186 24.1545 3.41202C24.1545 1.53107 22.6255 0.00136489 20.7447 0.00136489C18.8645 0.00136489 17.3349 1.53127 17.3349 3.41202C17.3349 4.95926 18.3772 6.25352 19.7932 6.66749C19.4749 8.44028 17.9576 9.45487 15.5109 10.4031C14.9423 9.31115 13.8112 8.55514 12.4937 8.55514C11.1806 8.55514 10.0502 9.31224 9.48244 10.4054C7.03499 9.46736 5.51682 8.45352 5.2001 6.66933C5.74393 6.51258 6.24826 6.23374 6.66121 5.82187C7.3058 5.17728 7.66113 4.32186 7.66038 3.41305C7.66118 1.53154 6.13129 0.000818935 4.24897 0C2.36959 0.00079969 0.840977 1.53127 0.840977 3.41141C0.840178 4.32179 1.19553 5.17724 1.83851 5.82126C2.28077 6.26352 2.82539 6.55782 3.41509 6.70605C3.69474 8.85841 5.13615 10.1972 6.69459 11.0822H2.90995C2.62364 10.6565 2.13796 10.375 1.5888 10.375C0.712814 10.375 0 11.0886 0 11.9662C0 12.8414 0.712541 13.5543 1.5888 13.5543H1.5904C2.13929 13.5543 2.62396 13.2746 2.91025 12.8497H9.21864C9.50255 13.8963 10.2636 14.7438 11.2636 15.134L4.56709 26.851C4.38742 27.165 4.41807 27.5555 4.6428 27.8387L6.89671 30.6767L6.89591 33.3291V37.2114C6.89591 37.6995 7.29205 38.0951 7.77989 38.0951H17.2727C17.7608 38.0951 18.1564 37.7 18.1564 37.2114V33.3291L18.1556 30.6716L20.3621 27.8309C20.5817 27.5486 20.6089 27.1616 20.4319 26.8507L13.7373 15.1338C14.7348 14.7425 15.4954 13.8953 15.7787 12.8495H22.0895C22.3758 13.2744 22.8605 13.554 23.4104 13.554H23.4139C24.289 13.5517 25.0008 12.838 25 11.966C24.9984 11.0892 24.2848 10.3753 23.408 10.3753L23.4081 10.3754ZM19.1017 3.41236C19.1017 2.50601 19.8383 1.76944 20.747 1.76944C21.6515 1.76944 22.3865 2.50601 22.3865 3.41318C22.3873 3.85037 22.2159 4.26201 21.9056 4.57225C21.5947 4.88228 21.182 5.05343 20.743 5.05343C19.8382 5.05369 19.1017 4.31742 19.1017 3.41236ZM2.60837 3.41236C2.60837 2.50519 3.34412 1.76863 4.24863 1.76781C5.15581 1.76861 5.89319 2.50519 5.89237 3.41311C5.89237 3.8495 5.72176 4.26194 5.41119 4.57218C5.10116 4.88221 4.68766 5.05336 4.24865 5.05336L4.24705 5.05363C3.80905 5.05363 3.39747 4.88301 3.08798 4.57271C2.77795 4.26321 2.60841 3.85028 2.60841 3.41228L2.60837 3.41236ZM16.3883 36.3281H8.66303V34.2143H16.3883V36.3281ZM16.5733 29.827C16.4536 29.9818 16.388 30.173 16.388 30.3692L16.3888 32.4466H8.66288L8.66368 30.3692C8.66368 30.1698 8.5965 29.976 8.47174 29.8195L6.39745 27.2086L11.6152 18.0802V23.5819C10.8795 23.9191 10.3642 24.6594 10.3642 25.5199C10.3642 26.6971 11.3212 27.6549 12.4992 27.6549C13.6764 27.6549 14.6342 26.6971 14.6342 25.5207C14.635 24.95 14.413 24.4141 14.0102 24.0113C13.8262 23.8274 13.6124 23.6866 13.3837 23.5816V18.0799L18.6039 27.2145L16.5733 29.827ZM12.4992 13.6073H12.4968C11.5912 13.6073 10.8547 12.8707 10.8547 11.967C10.8555 11.0607 11.5913 10.3233 12.5 10.3233C13.4056 10.3233 14.1413 11.0607 14.1413 11.967C14.1413 12.8707 13.4045 13.6073 12.4992 13.6073Z" fill="black"/>
</svg>
