<svg width="74" height="75" viewBox="0 0 74 75" fill="none" xmlns="http://www.w3.org/2000/svg">
<path d="M30.6726 62.5767C29.0907 64.1585 27.2097 65.2561 25.2129 65.876C27.4427 70.1109 31.8843 73.0003 37.0018 73.0003C42.1194 73.0003 46.5626 70.1109 48.7908 65.876C46.794 65.2561 44.9129 64.1585 43.331 62.5767" stroke="black" stroke-width="2.64" stroke-linecap="round" stroke-linejoin="round"/>
<path d="M43.331 12.2488C44.9129 10.6669 46.794 9.56934 48.7908 8.94948C46.5609 4.71458 42.1194 1.8252 37.0018 1.8252C31.8843 1.8252 27.4411 4.71458 25.2129 8.94948C27.2097 9.56934 29.0907 10.6669 30.6726 12.2488" stroke="black" stroke-width="2.64" stroke-linecap="round" stroke-linejoin="round"/>
<path d="M11.8377 31.0828C10.2558 29.5009 9.15821 27.6198 8.53834 25.623C4.30345 27.8529 1.41406 32.2944 1.41406 37.412C1.41406 42.5296 4.30345 46.9728 8.53834 49.2009C9.15821 47.2042 10.2558 45.3231 11.8377 43.7412" stroke="black" stroke-width="2.64" stroke-linecap="round" stroke-linejoin="round"/>
<path d="M62.1641 43.7412C63.746 45.3231 64.8435 47.2042 65.4634 49.2009C69.6983 46.9711 72.5877 42.5296 72.5877 37.412C72.5877 32.2944 69.6983 27.8512 65.4634 25.623C64.8435 27.6198 63.746 29.5009 62.1641 31.0828" stroke="black" stroke-width="2.64" stroke-linecap="round" stroke-linejoin="round"/>
<path d="M14.7326 50.7299C12.4961 50.7299 10.3903 50.1762 8.53894 49.2009C7.12069 53.7714 8.21826 58.9551 11.8383 62.5751C15.4583 66.1951 20.642 67.2926 25.2124 65.8744C24.2388 64.0231 23.6834 61.9172 23.6834 59.6807" stroke="black" stroke-width="2.64" stroke-linecap="round" stroke-linejoin="round"/>
<path d="M59.2689 24.094C61.5053 24.094 63.6112 24.6478 65.4625 25.623C66.8808 21.0526 65.7832 15.8689 62.1632 12.2489C58.5432 8.62891 53.3595 7.53134 48.7891 8.94958C49.7627 10.8009 50.3181 12.9068 50.3181 15.1432" stroke="black" stroke-width="2.64" stroke-linecap="round" stroke-linejoin="round"/>
<path d="M23.6834 15.1432C23.6834 12.9068 24.2372 10.8009 25.2124 8.94958C20.642 7.53134 15.4583 8.62891 11.8383 12.2489C8.21826 15.8689 7.12069 21.0526 8.53894 25.623C10.3903 24.6494 12.4961 24.094 14.7326 24.094" stroke="black" stroke-width="2.64" stroke-linecap="round" stroke-linejoin="round"/>
<path d="M50.3181 59.6807C50.3181 61.9172 49.7643 64.0231 48.7891 65.8744C53.3595 67.2926 58.5432 66.1951 62.1632 62.5751C65.7832 58.9551 66.8808 53.7714 65.4625 49.2009C63.6112 50.1745 61.5053 50.7299 59.2689 50.7299" stroke="black" stroke-width="2.64" stroke-linecap="round" stroke-linejoin="round"/>
<path d="M34.4874 51.6505C34.17 48.8454 30.8608 47.5296 28.6607 49.2983C25.6258 51.7397 23.6836 55.4837 23.6836 59.6806C23.6836 61.917 24.2373 64.0229 25.2126 65.8742C27.2094 65.2544 29.0904 64.1568 30.6723 62.5749C33.6576 59.5897 34.9287 55.5415 34.4874 51.6505Z" stroke="black" stroke-width="2.64" stroke-linecap="round" stroke-linejoin="round"/>
<path d="M25.115 45.7528C26.8853 43.5527 25.5679 40.2434 22.7628 39.9261C18.8717 39.4847 14.822 40.7575 11.8384 43.7411C10.2565 45.323 9.15892 47.2041 8.53906 49.2008C10.3904 50.1744 12.4963 50.7298 14.7327 50.7298C18.9296 50.7298 22.6736 48.7876 25.115 45.7528Z" stroke="black" stroke-width="2.64" stroke-linecap="round" stroke-linejoin="round"/>
<path d="M39.515 23.1732C39.8324 25.9783 43.1416 27.2941 45.3417 25.5254C48.3765 23.084 50.3188 19.34 50.3188 15.1431C50.3188 12.9067 49.765 10.8008 48.7898 8.94946C46.793 9.56932 44.9119 10.6669 43.33 12.2488C40.3448 15.234 39.0736 19.2821 39.515 23.1732Z" stroke="black" stroke-width="2.64" stroke-linecap="round" stroke-linejoin="round"/>
<path d="M48.8879 29.0711C47.1176 31.2712 48.435 34.5804 51.2401 34.8978C55.1311 35.3391 59.1809 34.0663 62.1645 31.0827C63.7464 29.5008 64.844 27.6198 65.4638 25.623C63.6125 24.6494 61.5066 24.094 59.2702 24.094C55.0733 24.094 51.3293 26.0362 48.8879 29.0711Z" stroke="black" stroke-width="2.64" stroke-linecap="round" stroke-linejoin="round"/>
<path d="M28.6607 25.5254C30.8608 27.2957 34.17 25.9783 34.4874 23.1732C34.9287 19.2821 33.6559 15.2324 30.6723 12.2488C29.0904 10.6669 27.2094 9.56932 25.2126 8.94946C24.239 10.8008 23.6836 12.9067 23.6836 15.1431C23.6836 19.34 25.6258 23.084 28.6607 25.5254Z" stroke="black" stroke-width="2.64" stroke-linecap="round" stroke-linejoin="round"/>
<path d="M22.7628 34.8978C25.5679 34.5804 26.8837 31.2712 25.115 29.0711C22.6736 26.0362 18.9296 24.094 14.7327 24.094C12.4963 24.094 10.3904 24.6477 8.53906 25.623C9.15892 27.6198 10.2565 29.5008 11.8384 31.0827C14.8236 34.068 18.8717 35.3391 22.7628 34.8978Z" stroke="black" stroke-width="2.64" stroke-linecap="round" stroke-linejoin="round"/>
<path d="M45.3416 49.2983C43.1415 47.528 39.8323 48.8454 39.5149 51.6505C39.0736 55.5415 40.3464 59.5913 43.33 62.5749C44.9118 64.1568 46.7929 65.2544 48.7897 65.8742C49.7633 64.0229 50.3187 61.917 50.3187 59.6806C50.3187 55.4837 48.3765 51.7397 45.3416 49.2983Z" stroke="black" stroke-width="2.64" stroke-linecap="round" stroke-linejoin="round"/>
<path d="M51.2393 39.9261C48.4342 40.2435 47.1185 43.5527 48.8872 45.7528C51.3286 48.7877 55.0726 50.7299 59.2694 50.7299C61.5059 50.7299 63.6118 50.1762 65.4631 49.2009C64.8432 47.2041 63.7457 45.3231 62.1638 43.7412C59.1785 40.7559 55.1304 39.4848 51.2393 39.9261Z" stroke="black" stroke-width="2.64" stroke-linecap="round" stroke-linejoin="round"/>
</svg>
