<svg width="71" height="69" viewBox="0 0 71 69" fill="none" xmlns="http://www.w3.org/2000/svg">
<path d="M50.6983 63.2457V42.6123C50.6983 34.1704 43.8551 27.3257 35.4116 27.3257C26.9682 27.3257 20.125 34.1689 20.125 42.6123V63.2552" stroke="black" stroke-width="2.51761" stroke-linecap="round" stroke-linejoin="round"/>
<path d="M25.2168 65.3231V42.6126C25.2168 36.9826 29.78 32.4194 35.41 32.4194C41.04 32.4194 45.6032 36.9826 45.6032 42.6126" stroke="black" stroke-width="2.51761" stroke-linecap="round" stroke-linejoin="round"/>
<path d="M55.787 60.0736V42.6108C55.787 31.3571 46.6639 22.2339 35.4101 22.2339C24.1564 22.2339 15.0332 31.3571 15.0332 42.6108" stroke="black" stroke-width="2.51761" stroke-linecap="round" stroke-linejoin="round"/>
<path d="M40.5112 66.509V42.6106C40.5112 39.7924 38.2265 37.5093 35.4099 37.5093C32.5933 37.5093 30.3086 39.794 30.3086 42.6106V66.4996" stroke="black" stroke-width="2.51761" stroke-linecap="round" stroke-linejoin="round"/>
<path d="M35.4102 51.1565V42.6045" stroke="black" stroke-width="2.51761" stroke-linecap="round" stroke-linejoin="round"/>
<path d="M9.93945 55.3465V42.6121C9.93945 28.5449 21.3427 17.1401 35.4114 17.1401C49.4801 17.1401 60.8833 28.5433 60.8833 42.6121V55.3496" stroke="black" stroke-width="2.51761" stroke-linecap="round" stroke-linejoin="round"/>
<path d="M9.63672 11.0242C16.6609 5.28561 25.633 1.84277 35.4108 1.84277C45.1885 1.84277 54.1418 5.27931 61.1628 11.0069" stroke="black" stroke-width="2.51761" stroke-linecap="round" stroke-linejoin="round"/>
<path d="M27.5186 7.82666C15.316 10.5834 5.48634 19.5965 1.57617 31.3176" stroke="black" stroke-width="2.51761" stroke-linecap="round" stroke-linejoin="round"/>
<path d="M69.2488 31.3305C64.5283 17.1658 51.1629 6.95215 35.4121 6.95215" stroke="black" stroke-width="2.51761" stroke-linecap="round" stroke-linejoin="round"/>
<path d="M56.3356 20.3345C50.8677 15.1955 43.5052 12.0469 35.4095 12.0469C18.5289 12.0469 4.8457 25.7301 4.8457 42.6107V47.627" stroke="black" stroke-width="2.51761" stroke-linecap="round" stroke-linejoin="round"/>
<path d="M65.9739 47.6414V42.6125C65.9739 36.5482 64.2084 30.8961 61.1621 26.1426" stroke="black" stroke-width="2.51761" stroke-linecap="round" stroke-linejoin="round"/>
<path d="M35.4102 57.8677V66.8917" stroke="black" stroke-width="2.51761" stroke-linecap="round" stroke-linejoin="round"/>
<path d="M45.6055 49.2212V65.3276" stroke="black" stroke-width="2.51761" stroke-linecap="round" stroke-linejoin="round"/>
<path d="M15.0332 49.2212V60.0815" stroke="black" stroke-width="2.51761" stroke-linecap="round" stroke-linejoin="round"/>
</svg>
