<svg width="82" height="68" viewBox="0 0 82 68" fill="none" xmlns="http://www.w3.org/2000/svg">
<path d="M15.0679 37.5986C24.7677 53.82 45.3708 66.6372 45.3708 66.6372C45.3708 66.6372 80.6128 44.7152 80.6128 21.9229C80.6128 10.98 71.7421 2.10938 60.7993 2.10938C54.563 2.10938 49.0025 4.99098 45.3708 9.49307C41.7392 4.98933 36.1771 2.10938 29.9424 2.10938C18.9996 2.10938 10.1289 10.98 10.1289 21.9229C10.1289 23.5483 10.3086 25.1704 10.6416 26.7794" stroke="black" stroke-width="2.63762" stroke-linecap="round" stroke-linejoin="round"/>
<path d="M2.17578 32.2902L23.8488 32.3132L26.0463 21.4528L30.6852 44.2897L37.0567 13.2383L45.3075 53.8626L51.956 21.1198L55.6338 39.2238L57.0614 32.1912H70.1044" stroke="black" stroke-width="2.63762" stroke-linecap="round" stroke-linejoin="round"/>
</svg>
