<svg width="38" height="38" viewBox="0 0 38 38" fill="none" xmlns="http://www.w3.org/2000/svg">
<path d="M37.24 6.08C37.4416 6.08 37.6348 5.99984 37.7773 5.85734C37.9198 5.71484 38 5.52157 38 5.32V0.76C38 0.558425 37.9198 0.365157 37.7773 0.222657C37.6348 0.0801571 37.4416 0 37.24 0H32.68C32.2602 0 31.92 0.340222 31.92 0.76V2.28H22.04V0.76C22.04 0.558425 21.9598 0.365157 21.8173 0.222657C21.6748 0.0801571 21.4816 0 21.28 0H16.72C16.3002 0 15.96 0.340222 15.96 0.76V2.28H6.08V0.76C6.08 0.558425 5.99984 0.365157 5.85734 0.222657C5.71484 0.0801571 5.52157 0 5.32 0H0.76C0.340222 0 0 0.340222 0 0.76V5.32C0 5.52157 0.0801574 5.71484 0.222657 5.85734C0.365157 5.99984 0.558425 6.08 0.76 6.08H2.28V15.96H0.76C0.340222 15.96 0 16.3002 0 16.72V21.28C0 21.4816 0.0801574 21.6748 0.222657 21.8173C0.365157 21.9598 0.558425 22.04 0.76 22.04H2.28V31.92H0.76C0.340222 31.92 0 32.2602 0 32.68V37.24C0 37.4416 0.0801574 37.6348 0.222657 37.7773C0.365157 37.9198 0.558425 38 0.76 38H5.32C5.52157 38 5.71484 37.9198 5.85734 37.7773C5.99984 37.6348 6.08 37.4416 6.08 37.24V35.72H15.96V37.24C15.96 37.4416 16.0402 37.6348 16.1827 37.7773C16.3252 37.9198 16.5184 38 16.72 38H21.28C21.4816 38 21.6748 37.9198 21.8173 37.7773C21.9598 37.6348 22.04 37.4416 22.04 37.24V35.72H31.92V37.24C31.92 37.4416 32.0002 37.6348 32.1427 37.7773C32.2852 37.9198 32.4784 38 32.68 38H37.24C37.4416 38 37.6348 37.9198 37.7773 37.7773C37.9198 37.6348 38 37.4416 38 37.24V32.68C38 32.4784 37.9198 32.2852 37.7773 32.1427C37.6348 32.0002 37.4416 31.92 37.24 31.92H35.72V22.04H37.24C37.4416 22.04 37.6348 21.9598 37.7773 21.8173C37.9198 21.6748 38 21.4816 38 21.28V16.72C38 16.5184 37.9198 16.3252 37.7773 16.1827C37.6348 16.0402 37.4416 15.96 37.24 15.96H35.72V6.08H37.24ZM33.44 1.52H36.48V4.56H33.44V1.52ZM17.48 1.52H20.52V4.56H17.48V1.52ZM1.52 1.52H4.56V4.56H1.52V1.52ZM1.52 20.52V17.48H4.56V20.52H1.52ZM4.56 36.48H1.52V33.44H4.56V36.48ZM20.52 36.48H17.48V33.44H20.52V36.48ZM36.48 36.48H33.44V33.44H36.48V36.48ZM36.48 17.48V20.52H33.44V17.48H36.48ZM34.2 15.96H32.68C32.2602 15.96 31.92 16.3002 31.92 16.72V21.28C31.92 21.4816 32.0002 21.6748 32.1427 21.8173C32.2852 21.9598 32.4784 22.04 32.68 22.04H34.2V31.92H32.68C32.2602 31.92 31.92 32.2602 31.92 32.68V34.2H22.04V32.68C22.04 32.4784 21.9598 32.2852 21.8173 32.1427C21.6748 32.0002 21.4816 31.92 21.28 31.92H16.72C16.3002 31.92 15.96 32.2602 15.96 32.68V34.2H6.08V32.68C6.08 32.4784 5.99984 32.2852 5.85734 32.1427C5.71484 32.0002 5.52157 31.92 5.32 31.92H3.8V22.04H5.32C5.52157 22.04 5.71484 21.9598 5.85734 21.8173C5.99984 21.6748 6.08 21.4816 6.08 21.28V16.72C6.08 16.5184 5.99984 16.3252 5.85734 16.1827C5.71484 16.0402 5.52157 15.96 5.32 15.96H3.8V6.08H5.32C5.52157 6.08 5.71484 5.99984 5.85734 5.85734C5.99984 5.71484 6.08 5.52157 6.08 5.32V3.8H15.96V5.32C15.96 5.52157 16.0402 5.71484 16.1827 5.85734C16.3252 5.99984 16.5184 6.08 16.72 6.08H21.28C21.4816 6.08 21.6748 5.99984 21.8173 5.85734C21.9598 5.71484 22.04 5.52157 22.04 5.32V3.8H31.92V5.32C31.92 5.52157 32.0002 5.71484 32.1427 5.85734C32.2852 5.99984 32.4784 6.08 32.68 6.08H34.2V15.96Z" fill="black"/>
<path d="M27.7751 13.2603L19.3407 9.04081C19.1263 8.93334 18.874 8.93334 18.6596 9.04081L10.2251 13.2603C9.96805 13.3892 9.80566 13.6522 9.80566 13.9399V24.06V24.0597C9.80566 24.3474 9.96805 24.6104 10.2251 24.7393L18.6596 28.9588C18.8743 29.0645 19.126 29.0645 19.3407 28.9588L27.7751 24.7393C28.0322 24.6104 28.1946 24.3474 28.1946 24.0597V13.9396C28.1946 13.6519 28.0322 13.3889 27.7751 13.26V13.2603ZM19.0002 10.5698L25.7443 13.9426L19.0002 17.3522L12.2561 13.9429L19.0002 10.5698ZM11.3257 15.1755L18.2402 18.6715V27.0558L11.3257 23.5919V15.1755ZM19.7602 27.0558V18.6715L26.6747 15.1755V23.5918L19.7602 27.0558Z" fill="black"/>
</svg>
