<svg width="60" height="83" viewBox="0 0 60 83" fill="none" xmlns="http://www.w3.org/2000/svg">
<path d="M9.79083 58.7399L14.2547 50.4508C4.28794 42.3884 -3.78109 27.8122 5.40473 13.6115C16.0498 -2.84421 34.213 1.86783 39.3337 4.7566C44.4544 7.64537 49.9689 14.2105 51.1519 24.1904C51.4579 26.7781 56.5356 30.557 57.717 32.0361C58.8983 33.5136 58.3738 35.3517 54.4344 36.1393C54.4344 36.1393 54.7057 43.2173 54.8596 46.4816C55.0648 50.8247 54.8282 55.9603 51.1519 56.4881C47.4755 57.0159 44.193 56.4881 44.193 56.4881L31.7197 79.0754" stroke="black" stroke-width="2.64721" stroke-linecap="round" stroke-linejoin="round"/>
<path d="M31.7396 79.0286C33.2792 77.3683 29.6193 71.4712 23.565 65.857C17.5108 60.2428 11.3547 57.0375 9.81506 58.6979C8.27545 60.3582 11.9353 66.2553 17.9896 71.8695C24.0439 77.4837 30.2 80.6889 31.7396 79.0286Z" stroke="black" stroke-width="2.64721" stroke-linecap="round" stroke-linejoin="round"/>
<path d="M14.6255 38.6226H14.5627C13.522 38.5944 12.5078 38.3711 11.5531 37.9558L12.6087 35.5286C13.249 35.8066 13.9306 35.9572 14.6371 35.9754H14.6785L14.6255 38.6226ZM17.7228 38.0716L16.7598 35.6064C17.425 35.3466 18.0239 34.9628 18.5434 34.4681L20.3733 36.3807C19.6039 37.117 18.7122 37.6861 17.7244 38.0716H17.7228ZM8.97042 36.1673C8.2292 35.4029 7.65343 34.5161 7.25966 33.53L9.71826 32.5489C9.98298 33.2123 10.3701 33.8096 10.8698 34.3242L8.97042 36.1673ZM22.18 33.808L19.7595 32.7358C20.0474 32.0856 20.2029 31.3907 20.2211 30.6727C20.2211 30.628 20.2227 30.5866 20.2227 30.5436V30.5122H22.8699H21.6952L22.8683 30.489V30.5287C22.8683 30.5999 22.8683 30.671 22.8666 30.7422C22.8385 31.8077 22.6069 32.8384 22.1784 33.808H22.18ZM9.33276 30.4658L6.68555 30.4394C6.68555 30.398 6.68555 30.3567 6.68886 30.3153C6.71533 29.2945 6.93207 28.2968 7.3308 27.3603L9.76624 28.3977C9.49821 29.0281 9.35261 29.6982 9.33441 30.3897V30.4658H9.33276ZM19.8074 28.4407C19.5328 27.7822 19.1374 27.1899 18.6294 26.682L20.5023 24.8124C21.2551 25.5669 21.8425 26.4454 22.2495 27.4249L19.8058 28.4407H19.8074ZM10.9558 26.6489L9.09947 24.7628C9.85889 24.0166 10.7407 23.4342 11.7235 23.0338L12.7228 25.4841C12.061 25.7538 11.4671 26.1459 10.9558 26.6489ZM16.874 25.5023C16.2536 25.2442 15.5951 25.1036 14.9167 25.0854C14.877 25.0854 14.839 25.0854 14.8009 25.0837L14.8092 22.4365C14.8687 22.4365 14.9267 22.4365 14.9862 22.4398C15.9922 22.4663 16.97 22.6748 17.8932 23.0586L16.874 25.5023Z" fill="black"/>
<path d="M14.7798 34.8685C17.1748 34.8685 19.1163 32.927 19.1163 30.532C19.1163 28.1371 17.1748 26.1956 14.7798 26.1956C12.3849 26.1956 10.4434 28.1371 10.4434 30.532C10.4434 32.927 12.3849 34.8685 14.7798 34.8685Z" stroke="black" stroke-width="2.64721" stroke-miterlimit="10"/>
<path d="M29.796 31.6177C28.7967 31.5283 27.8155 31.3083 26.8824 30.9641L27.799 28.4807C28.5154 28.7438 29.2665 28.9125 30.0342 28.982L29.7976 31.6193L29.796 31.6177ZM32.7791 31.4936L32.3224 28.8861C33.0769 28.7537 33.8098 28.5221 34.5047 28.1961L35.6298 30.5919C34.7231 31.0171 33.7651 31.3215 32.7791 31.4936ZM24.2385 29.5661C23.4245 28.987 22.6899 28.302 22.0529 27.531L24.0945 25.8467C24.5826 26.4391 25.1485 26.9652 25.7722 27.4103L24.2368 29.5677L24.2385 29.5661ZM38.143 28.9787L36.4339 26.9569C37.0196 26.4606 37.5391 25.8898 37.9759 25.261L40.1515 26.7683C39.5824 27.5889 38.9074 28.3335 38.143 28.9787ZM20.4728 24.998C20.0592 24.0863 19.768 23.1234 19.6075 22.1373L22.22 21.7138C22.3424 22.4682 22.5658 23.2061 22.8834 23.9044L20.4728 24.9996V24.998ZM41.5149 24.1079L39.0199 23.2243C39.2747 22.5046 39.4335 21.7502 39.493 20.9825L42.132 21.186C42.0542 22.187 41.8474 23.1698 41.5149 24.1079ZM22.1555 19.4206L19.5215 19.1526C19.6241 18.1549 19.8557 17.1771 20.2114 16.2473L22.6832 17.1937C22.4103 17.9068 22.2316 18.6563 22.1538 19.4223L22.1555 19.4206ZM39.4401 19.1228C39.3359 18.3651 39.1324 17.6222 38.8329 16.9157L41.27 15.8816C41.6605 16.8032 41.9285 17.7727 42.0642 18.7638L39.4418 19.1228H39.4401ZM23.7785 15.1818L21.6409 13.6199C22.2299 12.8142 22.9232 12.0879 23.7024 11.4608L25.3619 13.524C24.763 14.0054 24.2302 14.563 23.7785 15.1818ZM37.6681 14.9435C37.1933 14.338 36.6423 13.7986 36.0302 13.3387L37.6185 11.2209C38.4176 11.8198 39.1357 12.523 39.7512 13.3089L37.6681 14.9419V14.9435ZM27.3208 12.336L26.257 9.91218C27.1736 9.51014 28.1398 9.23052 29.1292 9.08327L29.5197 11.7007C28.7636 11.8132 28.024 12.0266 27.3208 12.336ZM34.0332 12.2202C33.3234 11.939 32.5756 11.7503 31.8112 11.6626L32.1123 9.03198C33.1083 9.14614 34.0828 9.39101 35.0093 9.75831L34.0315 12.2186L34.0332 12.2202Z" fill="black"/>
<path d="M30.8123 27.7044C34.8949 27.7044 38.2046 24.3947 38.2046 20.312C38.2046 16.2293 34.8949 12.9197 30.8123 12.9197C26.7296 12.9197 23.4199 16.2293 23.4199 20.312C23.4199 24.3947 26.7296 27.7044 30.8123 27.7044Z" stroke="black" stroke-width="2.64721" stroke-miterlimit="10"/>
<path d="M40.8107 44.5705H40.7628C39.7105 44.5208 38.6996 44.2776 37.7549 43.8458L38.8568 41.4385C39.4921 41.728 40.1705 41.8918 40.8753 41.9233H40.9166L40.8107 44.5705ZM43.9196 44.0791L43.003 41.5957C43.673 41.3491 44.2802 40.9769 44.808 40.4904L46.6015 42.4378C45.8173 43.1592 44.9156 43.7118 43.9212 44.0791H43.9196ZM35.2053 42.0076C34.4789 41.23 33.9197 40.3316 33.5458 39.3389L36.0226 38.4041C36.2741 39.0725 36.6513 39.6764 37.141 40.2009L35.2053 42.0076ZM48.4579 39.9031L46.0588 38.7847C46.36 38.1394 46.5287 37.4478 46.5602 36.7298C46.5618 36.6768 46.5635 36.6255 46.5651 36.5726L49.2123 36.6189C49.2123 36.695 49.209 36.7711 49.2057 36.8489C49.1577 37.9144 48.9062 38.9435 48.4595 39.9031H48.4579ZM35.6768 36.3178L33.0312 36.2384C33.0312 36.1987 33.0346 36.1606 33.0362 36.1209C33.0825 35.0934 33.3175 34.1024 33.7344 33.1726L36.15 34.2563C35.8687 34.8817 35.7116 35.5484 35.6801 36.24L35.6768 36.3178ZM46.1896 34.4929C45.9281 33.8294 45.5443 33.2305 45.0463 32.7126L46.9556 30.8794C47.6935 31.6471 48.2643 32.5372 48.6531 33.525L46.1896 34.4945V34.4929ZM37.3743 32.5323L35.5544 30.6097C36.327 29.8784 37.2221 29.3126 38.2115 28.9304L39.1645 31.4006C38.4977 31.657 37.8955 32.0376 37.376 32.5306L37.3743 32.5323ZM43.3124 31.4999C42.6985 31.2302 42.0417 31.0763 41.3634 31.0465C41.3236 31.0449 41.2839 31.0432 41.2459 31.0432L41.3088 28.396C41.3667 28.396 41.4262 28.3993 41.4841 28.4026C42.4884 28.4473 43.4629 28.6756 44.3779 29.0777L43.3107 31.4999H43.3124Z" fill="black"/>
<path d="M41.1216 40.8197C43.5166 40.8197 45.4581 38.8782 45.4581 36.4832C45.4581 34.0882 43.5166 32.1467 41.1216 32.1467C38.7267 32.1467 36.7852 34.0882 36.7852 36.4832C36.7852 38.8782 38.7267 40.8197 41.1216 40.8197Z" stroke="black" stroke-width="2.64721" stroke-miterlimit="10"/>
</svg>
