<svg width="23" height="26" viewBox="0 0 23 26" fill="none" xmlns="http://www.w3.org/2000/svg">
<path fill-rule="evenodd" clip-rule="evenodd" d="M15.5255 1.42759L14.6794 0.581085C14.6019 0.50361 14.5116 0.464874 14.4083 0.464874L0.374308 0.464873C0.167793 0.464873 2.97471e-07 0.632735 2.95007e-07 0.839334L6.70445e-08 19.9559C6.58127e-08 20.0592 0.0387215 20.1496 0.116165 20.227L1.32774 21.4391C1.3364 21.4478 1.34531 21.4559 1.35444 21.4635C1.35774 21.4669 1.36111 21.4704 1.36454 21.4738L5.592 25.4347C5.69242 25.5207 5.82154 25.5781 5.95067 25.5781L19.451 25.5781C19.7236 25.5781 19.9531 25.3486 19.9531 25.076L19.9388 5.77311C19.9388 5.64399 19.8957 5.51487 19.7953 5.41444L15.5535 1.45364C15.5444 1.4445 15.535 1.43582 15.5255 1.42759ZM14.707 2.43878L2.3474 2.43878C2.14089 2.43878 1.9731 2.60663 1.9731 2.81323L1.97309 20.613L14.2049 20.613C14.4775 20.613 14.707 20.3835 14.707 20.1109L14.707 2.43878Z" fill="#222222"/>
<path d="M21.3592 3.28097C22.2677 3.28097 22.9997 2.54685 22.9997 1.64048C22.9997 0.734116 22.2656 0 21.3592 0C20.4529 0 19.7188 0.734116 19.7188 1.64048C19.7188 2.54685 20.4529 3.28097 21.3592 3.28097ZM21.3592 2.84829C20.6928 2.84829 20.1535 2.30693 20.1535 1.64048C20.1535 0.974037 20.6928 0.432678 21.3592 0.432678C22.0277 0.432678 22.567 0.974037 22.567 1.64048C22.567 2.30898 22.0277 2.84829 21.3592 2.84829ZM20.7666 2.3787H21.1603V1.87015H21.4125L21.6463 2.3787H22.0769L21.7899 1.79633C21.9355 1.71431 22.0318 1.56871 22.0318 1.3657C22.0318 1.04786 21.794 0.865355 21.5069 0.865355H20.7666V2.3787ZM21.1603 1.58512V1.15654H21.4084C21.5192 1.15654 21.6176 1.21601 21.6176 1.3657C21.6176 1.51129 21.5212 1.58512 21.4064 1.58512H21.1603Z" fill="#222222"/>
</svg>
