<svg width="52px" viewBox="0 0 104 114" fill="none" xmlns="http://www.w3.org/2000/svg" class="">
    <path fill-rule="evenodd" clip-rule="evenodd" d="M69.949 6.36l-3.77-3.77c-.344-.346-.746-.518-1.206-.518H2.464c-.92 0-1.667.747-1.667 1.667v85.147c0 .46.172.863.517 1.208l5.397 5.398c.038.039.078.075.119.109l.045.046 18.829 17.642c.447.383 1.022.639 1.598.639h60.13c1.215 0 2.237-1.023 2.237-2.237l-.063-85.976c0-.575-.192-1.15-.64-1.598L70.074 6.476c-.04-.041-.082-.08-.124-.116zm-3.646 4.503h-55.05c-.92 0-1.668.748-1.668 1.668v79.282h54.482c1.214 0 2.236-1.023 2.236-2.237V10.863z" fill="currentColor"></path>
    <path d="M95.932 14.614a7.3 7.3 0 007.307-7.307A7.305 7.305 0 0095.932 0a7.305 7.305 0 00-7.307 7.307 7.305 7.305 0 007.307 7.307zm0-1.928a5.375 5.375 0 01-5.37-5.38 5.375 5.375 0 1110.749 0 5.371 5.371 0 01-5.38 5.38zm-2.64-2.091h1.754V8.33h1.123l1.041 2.265h1.919L97.849 8c.65-.365 1.079-1.014 1.079-1.918 0-1.416-1.06-2.229-2.339-2.229h-3.297v6.74zm1.754-3.535V5.151h1.105c.493 0 .932.265.932.932 0 .648-.43.977-.941.977h-1.096z" fill="currentColor"></path>
</svg>